<svg version="1.2" xmlns="http://www.w3.org/2000/svg" viewBox="0 0 20 20" width="20" height="20"><style>.a{fill:#808080}</style><path fill-rule="evenodd" class="a" d="m16 16c0.5 0 1 0.2 1.4 0.6 0.4 0.4 0.6 0.9 0.6 1.4 0 0.5-0.2 1-0.6 1.4-0.4 0.4-0.9 0.6-1.4 0.6-1.1 0-2-0.9-2-2 0-1.1 0.9-2 2-2zm-16-16h3.3l0.9 2h14.8q0.4 0 0.7 0.3 0.3 0.3 0.3 0.7 0 0.3-0.1 0.5l-3.6 6.5c-0.3 0.6-1 1-1.8 1h-7.4l-0.9 1.6v0.1q0 0.2 0 0.2 0.1 0.1 0.2 0.1h11.6v2h-12c-1.1 0-2-0.9-2-2q0-0.5 0.2-1l1.4-2.4-3.6-7.6h-2zm6 16c0.5 0 1 0.2 1.4 0.6 0.4 0.4 0.6 0.9 0.6 1.4 0 0.5-0.2 1-0.6 1.4-0.4 0.4-0.9 0.6-1.4 0.6-1.1 0-2-0.9-2-2 0-1.1 0.9-2 2-2zm9-7l2.8-5h-12.7l2.4 5z"/></svg>